<svg width="727" height="707" xmlns="http://www.w3.org/2000/svg" xmlns:xlink="http://www.w3.org/1999/xlink" overflow="hidden"><g transform="translate(-49 -84)"><g><g><g><path d="M384.498 150.762C384.5 152.187 384.558 153.268 384.491 154.341 384.366 156.373 385.342 157.138 387.29 157.069 389.203 157.003 391.12 157.072 393.036 157.072 437.201 157.073 481.368 157.066 525.534 157.076 532.946 157.077 536.844 160.962 536.907 168.31 536.953 173.557 534.203 177.104 529.044 178.425 528.027 178.685 526.995 178.888 525.496 179.223 528.15 185.243 530.661 191.015 533.232 196.761 547.738 229.17 562.285 261.562 576.719 294.003 577.753 296.329 578.977 297.238 581.523 297.168 585.704 297.051 586.385 298.14 585.831 302.415 582.302 329.628 565.219 344.898 540.52 352.803 519.287 359.599 498.376 357.492 478.641 347.227 460.813 337.953 449.773 323.311 446.6 303.169 445.829 298.275 446.716 297.107 451.705 297.147 454.147 297.166 455.296 296.182 456.23 294.022 472.279 256.933 488.4 219.875 504.506 182.81 504.975 181.732 505.687 180.717 505.385 179.422 504.012 178.646 502.551 178.914 501.151 178.914 463.927 178.903 426.702 178.912 389.478 178.922 384.499 178.924 384.492 178.937 384.492 183.799 384.494 235.267 384.496 286.734 384.501 338.202 384.502 343.053 384.509 343.056 389.463 343.061 396.046 343.066 402.63 343.036 409.212 343.077 414.953 343.112 418.087 346.215 418.219 351.903 418.244 352.98 418.226 354.058 418.221 355.134 418.19 362.421 415.517 365.141 408.321 365.144 381.869 365.155 355.417 365.159 328.965 365.152 322.131 365.151 319.646 362.396 319.309 355.623 318.782 345.063 321.777 342.554 331.928 343.016 337.542 343.272 343.184 342.881 348.799 343.124 351.876 343.256 352.952 341.871 352.974 339.198 352.995 336.69 352.74 334.181 352.754 331.672 352.842 315.757 352.849 299.842 352.972 283.926 353.184 256.284 352.827 228.637 352.755 200.991 352.74 195.137 352.911 189.282 353.026 183.429 353.084 180.513 352.346 178.823 348.789 178.833 310.13 178.943 271.469 178.912 232.809 178.926 231.987 178.926 231.165 179.014 230.141 179.074 230.349 182.07 231.982 184.368 233.056 186.779 248.869 222.274 264.833 257.704 280.632 293.207 281.963 296.197 283.591 297.359 286.847 297.172 291.03 296.931 292.034 298.394 291.484 302.631 288.82 323.107 276.683 336.897 259.21 345.954 234.147 358.945 208.355 359.092 183.058 346.515 165.086 337.582 153.635 323.23 150.838 302.788 150.221 298.277 151.102 296.864 155.59 297.179 159.12 297.428 160.342 295.617 161.535 292.853 174.371 263.101 187.289 233.384 200.19 203.66 203.707 195.557 207.243 187.464 210.899 179.07 204.965 178.356 200.559 176.196 199.305 169.983 197.977 163.404 202.061 157.691 208.769 157.11 209.84 157.018 210.923 157.068 211.999 157.068 257.362 157.069 302.726 157.073 348.089 157.077 353.013 157.077 353.268 157.064 353.005 152.155 352.658 145.685 353.166 139.237 353.041 132.789 352.874 124.176 358.061 120.93 364.677 119.848 376.313 117.946 384.383 125.231 384.486 137.131 384.524 141.558 384.496 145.986 384.498 150.762M477.804 271.213C474.195 279.59 470.586 287.966 466.84 296.661 500.211 296.661 532.85 296.661 566.195 296.661 549.315 258.885 532.718 221.743 515.765 183.804 502.927 213.332 490.456 242.016 477.804 271.213M224.538 193.75C222.986 191.058 222.38 187.862 220.034 184.896 203.769 222.358 187.719 259.325 171.462 296.766 204.936 296.766 237.479 296.766 270.64 296.766 255.188 262.254 239.965 228.252 224.538 193.75Z" fill="#BF9000" transform="matrix(1 0 0 1.00011 40.5271 54.4454)"/><path d="M355.603 588.77C345.08 558.758 332.654 529.903 316.011 503.066 307.892 489.974 299.659 476.882 289.215 465.411 287.683 463.727 287.59 462.239 289.034 460.353 305.764 438.501 313.324 412.964 318.512 386.502 319.082 383.591 319.207 380.588 319.463 377.621 319.665 375.274 320.507 373.92 323.213 373.925 353.49 373.981 383.767 373.972 414.044 373.938 416.464 373.935 417.361 374.978 417.625 377.333 419.327 392.46 423.138 407.097 428.333 421.371 433.339 435.126 439.71 448.218 448.068 460.283 449.297 462.057 449.619 463.583 448.068 465.43 428.712 488.474 413.296 513.998 400.625 541.226 391.338 561.183 382.906 581.475 377.191 602.792 376.329 606.007 375.807 609.316 375.158 612.587 374.937 613.7 374.667 614.856 373.271 614.73 371.843 614.601 371.868 613.331 371.815 612.252 371.781 611.535 371.785 610.816 371.785 610.098 371.782 564.982 371.811 519.866 371.713 474.749 371.707 471.626 372.54 469.778 375.382 468.234 380.219 465.607 382.753 459.268 381.45 454.454 379.837 448.492 374.215 443.767 368.596 443.651 363.537 443.546 357.694 447.751 355.926 452.768 353.997 458.241 355.61 464.655 360.738 467.551 364.754 469.818 365.175 472.72 365.167 476.652 365.081 521.049 365.121 565.448 365.076 609.846 365.075 611.5 365.822 613.466 363.966 614.768 362.123 614.358 361.959 612.924 361.692 611.488 360.268 603.851 358.198 596.384 355.603 588.77Z" fill="#BF9000" transform="matrix(1 0 0 1.00011 40.5271 54.4454)"/></g></g></g></g></svg>